<svg width="180" height="180" viewBox="0 0 180 180" fill="none" xmlns="http://www.w3.org/2000/svg">
<rect width="180" height="180" fill="#5276B7"/>
<g clip-path="url(#clip0)">
<rect width="120" height="138" transform="translate(30 21)" fill="#5276B7"/>
<path d="M148.652 95.0402C145.524 91.7789 138 93.3691 131.501 98.652C130.288 99.6223 129.182 100.7 128.211 101.832C127.888 102.156 127.564 102.533 127.24 102.938C121.119 110.727 101.622 128.166 100.813 128.866C96.5258 132.074 91.8337 135.524 87.3303 138.893C78.8359 145.2 71.4741 150.645 70.1528 151.723C69.0741 152.585 68.4539 153.771 68.346 155.011C68.2921 156.035 68.6427 157.005 69.3168 157.733C70.0449 158.488 71.0157 158.865 72.1483 158.865C73.2269 158.865 74.4674 158.515 75.6269 157.787C76.382 157.302 82.9618 151.857 93.5865 142.963C97.5775 139.594 101.73 136.144 105.371 133.098C105.398 133.098 105.398 133.071 105.425 133.071C105.613 132.936 124.948 119.972 135.384 114.662C137.865 113.746 140.319 112.29 142.611 110.457C146.926 106.927 149.757 102.56 149.973 99.0563C150.081 97.4121 149.649 96.0106 148.652 95.0402Z" fill="#EFCA9C"/>
<path d="M130.476 114.716H130.288C128.885 114.527 127.699 113.934 126.809 113.045C125.946 112.155 125.434 110.996 125.38 109.649C125.353 108.948 125.892 108.355 126.593 108.328C127.294 108.301 127.888 108.84 127.915 109.541C127.942 110.242 128.211 110.835 128.643 111.32C129.128 111.832 129.829 112.155 130.638 112.263C131.339 112.371 131.825 112.991 131.717 113.692C131.636 114.285 131.097 114.716 130.476 114.716Z" fill="#E0B289"/>
<path d="M107.69 152.423C105.667 148.111 83.3393 129.244 82.0988 128.22C43.0517 89.8922 35.582 89.1375 34.8539 89.2184C34.6382 89.2184 34.4494 89.3531 34.2876 89.5418C34.1528 89.7305 34.0988 89.9461 34.1528 90.1887C36.0135 98.059 42.2427 107.87 52.5708 119.325C60.2561 127.815 67.4831 134.122 67.564 134.176C67.8067 134.392 68.1573 134.419 68.4539 134.23C72.5258 131.696 74.737 131.535 75.8696 131.885C76.7326 132.128 76.9752 132.667 76.9752 132.667C77.0022 132.721 77.0292 132.802 77.0831 132.829C86.0359 144.904 92.7775 150.294 94.6112 151.642C97.0651 153.448 96.6337 156.116 96.6067 156.197C96.5528 156.493 96.6606 156.79 96.9303 156.952C98.9258 158.218 100.867 158.757 102.539 158.757C104.319 158.757 105.775 158.191 106.746 157.356C108.229 156.116 108.553 154.283 107.69 152.423Z" fill="#C6C6C6"/>
<path d="M107.69 152.423C105.64 148.084 83.0157 129.001 82.0719 128.166C81.8292 127.95 81.4786 127.95 81.182 128.112C78.1887 130.052 77.0831 131.858 77.0562 131.939C76.8944 132.182 76.9213 132.505 77.0831 132.775C86.0359 144.85 92.7775 150.24 94.6112 151.588C97.0651 153.394 96.6337 156.062 96.6067 156.143C96.5528 156.439 96.6606 156.736 96.9303 156.898C98.9258 158.164 100.867 158.704 102.539 158.704C104.319 158.704 105.775 158.138 106.746 157.302C108.229 156.116 108.553 154.283 107.69 152.423ZM86.3056 136.845C85.8202 137.276 85.0651 137.276 84.6067 136.845C84.1213 136.413 84.1213 135.713 84.6067 135.254C85.0921 134.823 85.8472 134.823 86.3056 135.254C86.791 135.713 86.791 136.44 86.3056 136.845ZM95.5011 146.116C95.0157 146.548 94.2606 146.548 93.8022 146.116C93.3168 145.685 93.3168 144.984 93.8022 144.526C94.2876 144.095 95.0427 144.095 95.5011 144.526C95.9865 144.984 95.9865 145.685 95.5011 146.116Z" fill="#4C4640"/>
<path d="M75.4112 125.74C75.1685 125.416 74.6831 125.362 74.3595 125.605C74.3325 125.632 70.9617 128.327 68.5348 129.244C68.1572 129.405 67.9685 129.81 68.1033 130.214C68.2381 130.511 68.5078 130.699 68.8044 130.699C68.9123 130.699 68.9932 130.672 69.0471 130.645C71.7168 129.621 75.1415 126.872 75.3033 126.737C75.6269 126.548 75.6539 126.063 75.4112 125.74Z" fill="#DDDDDD"/>
<path d="M149.11 74.9332C148.031 71.1598 140.643 70.2703 132.094 69.2191L130.881 69.0574C119.043 67.6289 104.049 57.3059 103.942 57.198L103.753 57.0902C95.8786 54.0176 87.6 56.2008 79.0786 63.559C72.391 69.327 67.4831 76.6852 65.3797 79.8117C65.191 80.1082 65.0292 80.3508 64.8674 80.5395C63.2494 82.9113 63.2494 86.8734 64.8674 92.318C66.1348 96.5766 68.4 101.617 70.9348 105.768C75.573 113.368 89.8921 127.195 90.5123 127.788C90.7011 127.95 90.9168 128.031 91.1865 128.031C91.3752 128.031 91.564 127.977 91.7528 127.842C103.618 118.975 111.195 110.215 115.483 104.42C119.312 99.218 121.227 95.5254 121.82 94.2586C124.112 93.8273 133.551 91.4824 144.148 82.8844C148.139 79.677 149.73 77.1434 149.11 74.9332Z" fill="#EAEAEA"/>
<path d="M100.706 46.4438C105.02 44.2336 107.986 39.7324 107.986 34.5305C107.986 27.1453 101.973 21.1348 94.5842 21.1348C89.3258 21.1348 84.6606 24.1805 82.4764 28.8164C79.9685 24.1535 75.0876 21.1348 69.6674 21.1348C62.1168 21.1348 55.9415 26.9027 55.2134 34.234C52.5438 31.8352 49.1191 30.4875 45.4786 30.4875C37.4696 30.5145 30.9438 37.0102 30.9438 45.0422C30.9438 49.2199 32.7775 53.209 35.8786 55.9852C32.2651 58.1953 29.973 62.1844 29.973 66.4969C29.973 73.316 35.528 78.8684 42.3505 78.8684C47.0157 78.8684 51.1146 76.2809 53.191 72.4266L73.6854 75.8496H73.8472C74.1977 75.8496 74.5213 75.6609 74.6831 75.3375C79.1865 67.009 86.8719 62.7504 92.5078 60.6211C98.6831 58.3031 103.861 58.0336 103.915 58.0336C104.211 58.0066 104.481 57.8449 104.643 57.6023C104.804 57.3598 104.831 57.0363 104.751 56.7398L100.706 46.4438Z" fill="white"/>
<path d="M100.49 79.2996C102.917 79.2996 104.885 77.3326 104.885 74.9063C104.885 72.4799 102.917 70.5129 100.49 70.5129C98.0623 70.5129 96.0944 72.4799 96.0944 74.9063C96.0944 77.3326 98.0623 79.2996 100.49 79.2996Z" fill="#4C4640"/>
<path d="M76.9213 76.1731C76.8135 76.0113 74.4674 72.5344 70.5842 69.5156C65.3528 65.4996 59.8247 64.3945 54.6741 66.3082C49.3348 68.3027 46.746 73.8281 48.5258 79.4074C49.6584 82.9652 52.3011 85.7684 56.0224 87.3856C58.3415 88.4098 61.0112 88.8949 63.9505 88.8949C66.4584 88.8949 69.182 88.5176 72.0404 87.7899C72.364 87.682 72.5797 87.4395 72.6067 87.116C72.6337 86.7926 72.4449 86.5231 72.1752 86.3613C70.9887 85.8223 69.7752 84.9867 69.5056 84.5824C69.6674 84.4746 70.0988 84.3398 71.1775 84.2051C71.5281 84.1781 71.8247 83.8816 71.8517 83.5313C71.8786 83.1809 71.6899 82.8305 71.3393 82.7496C69.5056 82.1027 67.6719 81.1594 67.2674 80.6473C67.5101 80.4856 68.5078 80.0543 71.8786 79.8926C72.1213 79.8926 72.364 79.7309 72.4719 79.5422C72.6067 79.3266 72.6337 79.057 72.5258 78.8414C72.337 78.4102 72.0135 77.2781 72.4179 76.8738C72.5797 76.7121 73.3078 76.227 76.0854 77.2242C76.409 77.332 76.7326 77.2242 76.9483 76.9816C77.1101 76.8199 77.1101 76.4695 76.9213 76.1731Z" fill="#4C4640"/>
<path d="M67.3213 63.532C67.1595 63.532 66.9977 63.5051 66.8898 63.3972C66.4583 63.1547 66.2426 62.5617 66.5123 62.1305C69.937 55.7965 75.8426 50.918 83.528 48.0609C89.3258 45.9047 94.0449 45.6082 94.2876 45.6082C94.7999 45.5812 95.2314 45.9855 95.2583 46.4976C95.2853 47.0098 94.8808 47.441 94.3685 47.468C94.3415 47.468 89.6763 47.7644 84.1213 49.8129C79.0516 51.7265 72.1752 55.5269 68.1303 62.9929C67.9954 63.3433 67.6449 63.532 67.3213 63.532Z" fill="#C6C6C6"/>
<path d="M90.728 73.3699H90.6202C90.1078 73.316 89.7303 72.8578 89.7842 72.3457C89.8112 72.1301 90.3775 67.2785 95.5011 65.4727C95.9865 65.3109 96.5258 65.5805 96.7145 66.0387C96.8763 66.5238 96.6067 67.0629 96.1483 67.2516C92.1303 68.6801 91.6719 72.5074 91.6719 72.5883C91.6179 73.0195 91.1865 73.3699 90.728 73.3699ZM121.766 94.3664C117.991 94.3395 114.216 93.6926 110.818 92.1293C110.333 91.9137 109.793 92.1024 109.577 92.5606C109.362 93.0457 109.551 93.5848 110.009 93.8004C113.407 95.3906 117.155 96.0375 120.795 96.1723C121.254 95.3906 121.577 94.7977 121.766 94.3664Z" fill="#BCB5AF"/>
<path d="M141.047 70.5129C139.025 72.184 137.919 74.3402 138.27 76.5234C138.782 79.7309 142.099 81.0246 146.413 80.9168C148.759 78.5719 149.649 76.6313 149.137 74.9332C148.436 72.5883 145.335 71.3754 141.047 70.5129Z" fill="#FFA9A9"/>
</g>
<defs>
<clipPath id="clip0">
<rect width="120" height="138" fill="white" transform="translate(30 21)"/>
</clipPath>
</defs>
</svg>
