<?xml version="1.0" encoding="utf-8"?>
<!-- Generator: Adobe Illustrator 24.2.3, SVG Export Plug-In . SVG Version: 6.00 Build 0)  -->
<svg version="1.1" xmlns="http://www.w3.org/2000/svg" xmlns:xlink="http://www.w3.org/1999/xlink" x="0px" y="0px"
	 viewBox="0 0 488.2 488.2" style="enable-background:new 0 0 488.2 488.2;" xml:space="preserve">
<style type="text/css">
	.st0{fill:#FF496C;}
	.st1{fill:#FD405F;}
	.st2{fill:#96EFFF;}
	.st3{fill:#6CE0F9;}
	.st4{fill:#40DAF4;}
</style>
<g id="Layer_2">
</g>
<g id="Layer_3">
	<g id="XMLID_1_">
		<g>
			<polygon class="st0" points="300.3,245.2 242.6,349 281.4,246.7 281.9,245.1 			"/>
			<polygon class="st0" points="255.3,252.1 255.1,253 242.6,349 230.1,253 229.9,252.1 242.6,252.1 			"/>
			<polygon class="st0" points="203.8,246.7 242.6,349 184.9,245.2 203.3,245.1 			"/>
			<polygon class="st0" points="184,245.7 184.5,246.6 152.6,241.1 142.1,215.6 171.7,221 171.9,221 184,245.7 			"/>
			<polygon class="st0" points="216.9,221.6 229.4,253.1 204.2,246.6 			"/>
			<polygon class="st0" points="268.3,221.6 281,246.6 255.8,253.1 			"/>
			<polygon class="st0" points="343.1,215.6 332.6,241.1 300.7,246.6 301.2,245.7 301.2,245.7 313.3,221 313.5,221 			"/>
			<polygon class="st0" points="286.9,160.1 313.2,219.2 269,219.2 269,219.2 274.9,160 286.9,160 			"/>
			<polygon class="st0" points="216.2,219.2 242.6,160 269,219.2 269,219.2 268.3,219.2 242.6,219.3 216.9,219.2 216.2,219.2 			"/>
			<polygon class="st0" points="216.2,219.2 216.2,219.2 172,219.2 198.3,160.1 198.3,160 210.3,160 			"/>
			<polygon class="st1" points="300.7,246.6 332.6,241.1 242.6,349 300.3,245.2 301.2,245.7 			"/>
			<polygon class="st1" points="281.4,246.7 242.6,349 255.1,253 255.8,253.1 281,246.6 			"/>
			<polygon class="st1" points="230.1,253 242.6,349 203.8,246.7 204.2,246.6 229.4,253.1 			"/>
			<polygon class="st1" points="184.9,245.2 242.6,349 152.6,241.1 184.5,246.6 184,245.7 			"/>
			<polygon class="st1" points="216.2,219.2 216.9,219.2 216.9,221.6 204.2,246.6 203.8,246.7 203.3,245.1 184.9,245.2 184,245.7 
				184,245.7 171.9,221 171.7,221 172,219.2 			"/>
			<polygon class="st1" points="255.3,252.1 242.6,252.1 229.9,252.1 230.1,253 229.4,253.1 216.9,221.6 216.9,219.2 242.6,219.3 
				268.3,219.2 268.3,221.6 255.8,253.1 255.1,253 			"/>
			<polygon class="st1" points="313.2,219.2 313.5,221 313.3,221 301.2,245.7 301.2,245.7 300.3,245.2 281.9,245.1 281.4,246.7 
				281,246.6 268.3,221.6 268.3,219.2 269,219.2 			"/>
			<polygon class="st1" points="294.7,160 344.6,212.1 343.1,215.6 313.5,221 313.2,219.2 286.9,160.1 286.9,160 			"/>
			<polygon class="st1" points="274.9,160 269,219.2 242.6,160 			"/>
			<polygon class="st1" points="242.6,160 216.2,219.2 210.3,160 			"/>
			<polygon class="st1" points="198.3,160 198.3,160.1 172,219.2 171.7,221 142.1,215.6 140.6,212.1 190.5,160 			"/>
			<path class="st2" d="M436.1,244.1c0,25.1-4.8,49.1-13.6,71l0,0l-28.6,5.7l-17.8-26.6c5.9-15.6,9.1-32.4,9.1-50.1
				c0-73.3-55.9-133.6-127.4-140.5l0-0.2l19.3-26.1L262.6,53C359.9,62.3,436.1,144.3,436.1,244.1z"/>
			<path class="st3" d="M390,331.3l27.9-5.6c-30.7,65.2-97,110.4-173.8,110.4c-77.1,0-143.5-45.4-174.1-110.9l0,0l15.4-24.7
				l31.6,5.3h0c22.9,47,71.1,79.4,127,79.4c56.4,0,105.1-33.1,127.7-81l0.2,0.1L390,331.3z"/>
			<path class="st4" d="M246.9,103L246.9,103c-0.9,0-1.8,0-2.8,0C166.2,103,103,166.2,103,244.1c0,18.2,3.5,35.6,9.8,51.6l-0.2,0.1
				l-32-5.4l-15.1,24.1c-8.6-21.8-13.4-45.6-13.4-70.5c0-106,86-192,192-192c2.3,0,4.6,0,6.9,0.1l14.9,25L246.9,103z"/>
		</g>
	</g>
</g>
</svg>
